<?xml version="1.0" standalone="no"?>
<!DOCTYPE svg PUBLIC "-//W3C//DTD SVG 20010904//EN"
 "http://www.w3.org/TR/2001/REC-SVG-20010904/DTD/svg10.dtd">
<svg version="1.0" xmlns="http://www.w3.org/2000/svg"
 width="347.000000pt" height="323.000000pt" viewBox="0 0 347.000000 323.000000"
 preserveAspectRatio="xMidYMid meet">
<metadata>
Created by potrace 1.16, written by Peter Selinger 2001-2019
</metadata>
<g transform="translate(0.000000,323.000000) scale(0.100000,-0.100000)"
fill="#000000" stroke="none">
<path d="M1532 3049 c-512 -60 -964 -420 -1139 -907 -56 -157 -73 -249 -79
-427 -9 -253 26 -423 135 -651 133 -279 339 -494 601 -628 307 -158 616 -200
950 -131 170 36 392 137 538 245 158 118 335 335 417 513 100 217 139 406 132
637 -10 337 -123 630 -336 875 -307 352 -757 528 -1219 474z m774 -444 c100
-49 178 -134 204 -222 9 -31 19 -42 44 -51 81 -29 135 -119 136 -223 0 -124
-73 -209 -190 -217 -33 -2 -63 -9 -68 -16 -5 -6 -31 -82 -57 -169 -29 -94 -53
-156 -59 -153 -6 2 -75 26 -153 52 -159 52 -153 46 -127 135 17 58 27 69 61
69 26 0 79 43 98 80 8 15 27 82 43 148 28 118 28 122 10 128 -11 3 -21 4 -22
2 -2 -1 -16 -55 -31 -118 -27 -112 -38 -140 -56 -140 -15 0 -10 45 16 142 30
113 32 138 7 138 -16 0 -24 -23 -52 -145 -18 -80 -39 -150 -47 -156 -28 -24
-26 27 7 162 27 108 31 142 22 151 -19 19 -27 2 -57 -119 -15 -62 -33 -117
-41 -124 -27 -22 -25 16 5 136 17 65 28 122 25 127 -9 15 -43 8 -48 -9 -26
-94 -48 -234 -44 -281 4 -49 10 -60 40 -86 l35 -31 -19 -75 c-11 -41 -20 -76
-21 -77 -1 -1 -27 4 -58 11 -30 7 -101 19 -157 26 -56 7 -102 15 -102 19 0 3
16 73 35 156 19 82 35 158 34 170 0 13 -17 31 -47 50 -80 52 -116 155 -87 252
28 93 111 153 227 161 60 4 72 9 115 44 26 22 59 45 73 51 86 35 99 37 171 34
59 -3 90 -10 135 -32z m-1188 -405 c4 -339 -2 -422 -33 -458 -21 -25 -29 -27
-97 -27 l-73 0 -3 57 c-3 54 -1 58 22 64 13 3 27 15 30 27 3 12 6 154 6 315
l0 293 73 -3 72 -3 3 -265z m331 245 c63 -32 66 -50 66 -360 0 -312 -3 -332
-61 -360 -26 -12 -60 -15 -156 -13 l-123 3 -3 365 c-1 201 0 371 3 379 8 20
231 9 274 -14z m9 -900 c15 -9 39 -33 52 -53 25 -35 25 -40 28 -276 4 -263 -2
-307 -47 -350 -33 -32 -91 -56 -133 -56 -18 0 -56 11 -84 24 -41 19 -55 33
-73 70 -21 43 -23 59 -24 284 0 227 1 241 22 285 22 46 53 73 100 88 38 12
126 3 159 -16z m408 6 c49 -22 80 -62 93 -122 14 -61 14 -429 0 -485 -39 -155
-259 -180 -333 -39 -19 36 -21 60 -24 255 -5 294 9 349 102 391 52 24 110 24
162 0z m-726 -71 l0 -70 -55 0 -55 0 0 -65 0 -65 50 0 50 0 0 -69 0 -70 -47
-3 -48 -3 -3 -152 -3 -153 -79 0 -80 0 0 360 0 360 135 0 135 0 0 -70z m1179
52 c19 -9 44 -30 55 -45 20 -27 21 -44 24 -275 3 -294 -4 -337 -58 -364 -28
-15 -62 -18 -172 -18 l-138 0 0 360 0 360 128 0 c101 0 134 -4 161 -18z m371
-398 c7 -7 5 -24 -4 -50 -14 -41 -13 -40 -80 -27 -46 9 -27 -18 23 -33 23 -7
51 -20 62 -30 23 -21 25 -80 4 -110 -34 -50 -139 -68 -230 -40 -43 13 -46 24
-25 80 8 23 15 27 33 22 12 -4 37 -10 56 -13 47 -8 37 17 -12 31 -56 17 -77
40 -77 84 0 39 18 63 65 91 23 14 171 9 185 -5z"/>
<path d="M1320 2090 c0 -239 1 -250 19 -250 10 0 22 7 25 16 8 20 8 448 0 468
-3 9 -15 16 -25 16 -18 0 -19 -11 -19 -250z"/>
<path d="M1336 1418 c-8 -30 -8 -426 0 -455 4 -14 14 -23 25 -23 18 0 19 12
19 250 0 238 -1 250 -19 250 -11 0 -21 -9 -25 -22z"/>
<path d="M1765 1428 c-3 -7 -4 -119 -3 -248 3 -227 4 -235 23 -235 19 0 20 7
20 245 0 225 -1 245 -18 248 -9 2 -19 -3 -22 -10z"/>
<path d="M2190 1196 c0 -129 4 -237 8 -240 4 -2 14 -1 22 4 12 8 16 50 18 225
3 220 0 245 -34 245 -12 0 -14 -42 -14 -234z"/>
</g>
</svg>
